name C:\Users\u0150099\Documents\master_thesis\3dpredictsim\Results\debug\Fal_s1_mtjc2_sc_cspx10_oy2_ATx80_MTc2_MTPm_k1_d01_MTJm_nl_MG_exp5_table_d01_PF_Natali2010_x3_ls146_ig21.mot
datacolumns 128
datarows 4
range 0.53326567 0.56526161
endheader
time	pelvis_tilt	pelvis_list	pelvis_rotation	pelvis_tx	pelvis_ty	pelvis_tz	hip_flexion_l	hip_adduction_l	hip_rotation_l	hip_flexion_r	hip_adduction_r	hip_rotation_r	knee_angle_l	knee_angle_r	ankle_angle_l	ankle_angle_r	subtalar_angle_l	subtalar_angle_r	mtj_angle_l	mtj_angle_r	mtp_angle_l	mtp_angle_r	lumbar_extension	lumbar_bending	lumbar_rotation	arm_flex_l	arm_add_l	arm_rot_l	arm_flex_r	arm_add_r	arm_rot_r	elbow_flex_l	elbow_flex_r	pro_sup_l	pro_sup_r	glut_med1_l/activation	glut_med2_l/activation	glut_med3_l/activation	glut_min1_l/activation	glut_min2_l/activation	glut_min3_l/activation	semimem_l/activation	semiten_l/activation	bifemlh_l/activation	bifemsh_l/activation	sar_l/activation	add_long_l/activation	add_brev_l/activation	add_mag1_l/activation	add_mag2_l/activation	add_mag3_l/activation	tfl_l/activation	pect_l/activation	grac_l/activation	glut_max1_l/activation	glut_max2_l/activation	glut_max3_l/activation	iliacus_l/activation	psoas_l/activation	quad_fem_l/activation	gem_l/activation	peri_l/activation	rect_fem_l/activation	vas_med_l/activation	vas_int_l/activation	vas_lat_l/activation	med_gas_l/activation	lat_gas_l/activation	soleus_l/activation	tib_post_l/activation	flex_dig_l/activation	flex_hal_l/activation	tib_ant_l/activation	per_brev_l/activation	per_long_l/activation	per_tert_l/activation	ext_dig_l/activation	ext_hal_l/activation	ercspn_l/activation	intobl_l/activation	extobl_l/activation	glut_med1_r/activation	glut_med2_r/activation	glut_med3_r/activation	glut_min1_r/activation	glut_min2_r/activation	glut_min3_r/activation	semimem_r/activation	semiten_r/activation	bifemlh_r/activation	bifemsh_r/activation	sar_r/activation	add_long_r/activation	add_brev_r/activation	add_mag1_r/activation	add_mag2_r/activation	add_mag3_r/activation	tfl_r/activation	pect_r/activation	grac_r/activation	glut_max1_r/activation	glut_max2_r/activation	glut_max3_r/activation	iliacus_r/activation	psoas_r/activation	quad_fem_r/activation	gem_r/activation	peri_r/activation	rect_fem_r/activation	vas_med_r/activation	vas_int_r/activation	vas_lat_r/activation	med_gas_r/activation	lat_gas_r/activation	soleus_r/activation	tib_post_r/activation	flex_dig_r/activation	flex_hal_r/activation	tib_ant_r/activation	per_brev_r/activation	per_long_r/activation	per_tert_r/activation	ext_dig_r/activation	ext_hal_r/activation	ercspn_r/activation	intobl_r/activation	extobl_r/activation	
          0.53326567	         -2.92594416	          1.42833945	         -2.43867248	          0.70924335	          0.90990553	          0.00236953	         29.06429415	          3.12067095	         -1.52493021	        -17.47420280	          1.82587073	          9.34478156	        -10.81353369	         -7.76991000	          8.92105740	          5.34383504	         -1.62729141	         -0.40609251	          2.14286240	         -0.81590365	         -5.54699161	         15.84704203	         -3.84545335	         -0.47088654	          1.97436406	         -5.71733727	        -13.47633209	          4.08086746	          4.90296060	        -13.72183695	         19.38542722	         27.90715855	         32.52991224	         86.51662706	         86.51662706	          0.05000061	          0.05001276	          0.05000149	          0.05849167	          0.05004451	          0.05000452	          0.21204922	          0.06939900	          0.30151030	          0.05000181	          0.05000115	          0.13341104	          0.14229619	          0.12770656	          0.11242653	          0.11878578	          0.05000098	          0.05002150	          0.09590359	          0.05006197	          0.05307461	          0.08176184	          0.05000058	          0.05000070	          0.12089419	          0.05004460	          0.05047946	          0.05000045	          0.05000224	          0.05000226	          0.05000171	          0.07179966	          0.05000057	          0.05000022	          0.05000034	          0.09381475	          0.05000276	          0.29014153	          0.08083072	          0.12734390	          0.30551200	          0.55917237	          0.25224759	          0.06742177	          0.09577029	          0.13019780	          0.41575674	          0.07831143	          0.05302551	          0.52490924	          0.21984946	          0.09617672	          0.05000235	          0.05000034	          0.05000024	          0.09119764	          0.11329902	          0.05000033	          0.05000040	          0.05000071	          0.05000221	          0.05000160	          0.56519270	          0.05000159	          0.05000090	          0.05000669	          0.05000362	          0.05000228	          0.38409729	          0.76069328	          0.05000031	          0.05000126	          0.05000022	          0.34993683	          0.08018475	          0.08468296	          0.06612856	          0.44183447	          0.51197655	          0.33198540	          0.39383935	          0.30370801	          0.45672497	          0.05000002	          0.05000024	          0.21451178	          0.05000011	          0.05867243	          0.12119588	          0.05000004	          0.05000012	          0.05000005	
          0.54393099	         -2.92911786	          1.52215396	         -2.72848443	          0.72566800	          0.90939643	          0.00220253	         28.66378898	          3.44273707	         -1.44303914	        -17.55836363	          1.53096034	          9.18194599	        -10.59254280	         -9.29491346	          8.65230954	          4.76774127	         -1.70729042	          0.42438002	          2.36400964	         -1.89885958	         -6.15509903	         18.57406129	         -3.69764154	         -0.66944831	          2.08265253	         -6.37592230	        -13.45399662	          3.67181425	          4.62815782	        -13.66702278	         19.37066124	         27.38705247	         33.68937938	         86.51662706	         86.51662706	          0.11629118	          0.05000023	          0.05171236	          0.05000020	          0.05000026	          0.05000096	          0.19967936	          0.05892547	          0.28155162	          0.05462457	          0.05000107	          0.11330146	          0.14927688	          0.16749062	          0.11104822	          0.14470606	          0.05000182	          0.05882661	          0.08143317	          0.05099815	          0.05889291	          0.10489558	          0.05000036	          0.05000047	          0.26283958	          0.05014115	          0.05000192	          0.05000012	          0.05000129	          0.05000101	          0.05000090	          0.07026230	          0.06106150	          0.05000009	          0.05000084	          0.07965584	          0.06762475	          0.30007727	          0.06863163	          0.14970756	          0.34066188	          0.59652448	          0.34903953	          0.05888781	          0.08364718	          0.11054746	          0.37668334	          0.06649214	          0.05000004	          0.49881316	          0.18666829	          0.08166109	          0.05000129	          0.05000019	          0.05000013	          0.07743347	          0.09619966	          0.05000053	          0.05000021	          0.05000033	          0.05000104	          0.05000054	          0.51377303	          0.05000257	          0.05000036	          0.05000128	          0.05000074	          0.05000060	          0.32612671	          0.76718783	          0.05000006	          0.05000026	          0.05000006	          0.29712236	          0.08618654	          0.08928252	          0.07256209	          0.37514972	          0.43470557	          0.29919575	          0.35536926	          0.25968122	          0.40764170	          0.05000001	          0.05888883	          0.18213617	          0.05000010	          0.05000003	          0.10290416	          0.05000002	          0.05000001	          0.05000003	
          0.55459630	         -2.93017633	          1.61827822	         -3.00901666	          0.74239614	          0.90895547	          0.00200925	         28.26623214	          3.75525180	         -1.32927976	        -17.55739512	          1.21392728	          8.98047770	        -10.98594313	        -10.92936095	          8.03843331	          4.00533928	         -1.74831690	          1.32774531	          2.57039408	         -3.09818088	         -6.62101177	         21.53388514	         -3.53332085	         -0.87415502	          2.18439817	         -7.06045040	        -13.45067591	          3.43609283	          4.27198337	        -13.61925307	         19.31451388	         26.88000111	         34.88383546	         86.51662706	         86.51662706	          0.10156614	          0.05312678	          0.05000026	          0.05888775	          0.05888735	          0.05000151	          0.16954238	          0.05003216	          0.23905799	          0.05888750	          0.05003281	          0.09620184	          0.12674720	          0.26623973	          0.09428865	          0.16944944	          0.05000084	          0.05000343	          0.06914314	          0.05000213	          0.05000462	          0.10163002	          0.06232813	          0.06935507	          0.56916863	          0.11054445	          0.05000082	          0.06935550	          0.10119433	          0.15483963	          0.10394334	          0.07703386	          0.08168327	          0.05000055	          0.05000012	          0.06935550	          0.06935548	          0.34643682	          0.16054888	          0.13790952	          0.31891187	          0.61556290	          0.29636004	          0.05000006	          0.07102257	          0.09386286	          0.31983169	          0.05645673	          0.05000009	          0.42352884	          0.15849504	          0.06933632	          0.05000621	          0.05000041	          0.05000035	          0.06574670	          0.08168076	          0.09857089	          0.05048541	          0.05000133	          0.05000329	          0.05000979	          0.51879309	          0.06525099	          0.05000058	          0.05000107	          0.05000077	          0.05000096	          0.27690537	          0.65395340	          0.05000008	          0.05000068	          0.05000337	          0.25227882	          0.14507387	          0.16627918	          0.13674211	          0.31852946	          0.36909673	          0.25403900	          0.30173449	          0.22048852	          0.34611789	          0.05000000	          0.05000094	          0.15464689	          0.05000007	          0.05000004	          0.08737315	          0.05000002	          0.06935537	          0.05000204	
          0.56526161	         -2.93001334	          1.72899400	         -3.27935202	          0.75939295	          0.90855670	          0.00181299	         27.82853534	          4.01212221	         -1.16656128	        -17.48606125	          0.86610278	          8.73672192	        -11.85433760	        -12.62541791	          7.11779311	          3.00663451	         -1.77680477	          2.26317196	          2.61619619	         -4.38368372	         -6.97962345	         24.68847523	         -3.35343336	         -1.09554033	          2.27560075	         -7.76163466	        -13.46886314	          3.35585509	          3.83922036	        -13.57980086	         19.23676723	         26.37510039	         36.11977864	         86.51662706	         86.51662706	          0.27331356	          0.05000009	          0.30891001	          0.05000019	          0.05000014	          0.05000023	          0.15902069	          0.05000007	          0.21241332	          0.05000005	          0.05888837	          0.08168311	          0.27278778	          0.22605898	          0.24657239	          0.23085129	          0.05000038	          0.06924416	          0.05870798	          0.05000020	          0.05000026	          0.22141882	          0.05888797	          0.05888788	          0.48326584	          0.09386052	          0.11494249	          0.05888790	          0.09827145	          0.13147054	          0.08825606	          0.06540738	          0.06935508	          0.05888784	          0.05888781	          0.05888793	          0.05888796	          0.37936092	          0.13631786	          0.14124585	          0.34377575	          0.71251534	          0.25163131	          0.05000006	          0.06030337	          0.07969641	          0.27156049	          0.05000067	          0.05000041	          0.35960695	          0.13457390	          0.05887172	          0.05000239	          0.05000093	          0.05000109	          0.05582381	          0.06935322	          0.16326870	          0.12568677	          0.05888710	          0.05005818	          0.05000432	          0.44052526	          0.06935413	          0.05749698	          0.05004503	          0.05000962	          0.05000791	          0.23511287	          0.65896309	          0.05888711	          0.05000181	          0.05000008	          0.21420314	          0.12318003	          0.14118398	          0.11610481	          0.27045472	          0.31339003	          0.21569762	          0.25619459	          0.18721086	          0.29387940	          0.05908133	          0.05000004	          0.13130650	          0.05000005	          0.05000003	          0.07418618	          0.06303396	          0.05888777	          0.05000105	
